HIERARCHY
ROOT WildBoar_ROOTSHJnt
{
	OFFSET 0.000000 44.410820 68.815338
	CHANNELS 6 Xposition Yposition Zposition Xrotation Yrotation Zrotation
	JOINT WildBoar_Spine_01SHJnt
	{
		OFFSET -0.000000 -13.726324 -0.500702
		CHANNELS 3 Xrotation Yrotation Zrotation
		JOINT WildBoar_Spine_02SHJnt
		{
			OFFSET -0.000000 -13.721075 -0.511734
			CHANNELS 3 Xrotation Yrotation Zrotation
			JOINT WildBoar_Spine_03SHJnt
			{
				OFFSET -0.000000 -13.733017 -0.763184
				CHANNELS 3 Xrotation Yrotation Zrotation
				JOINT WildBoar_Spine_04SHJnt
				{
					OFFSET 0.000000 -13.726805 1.066475
					CHANNELS 3 Xrotation Yrotation Zrotation
					JOINT WildBoar_Spine_TopSHJnt
					{
						OFFSET 0.000000 -13.726805 0.709183
						CHANNELS 3 Xrotation Yrotation Zrotation
						JOINT WildBoar_l_Clavicle_01_01SHJnt
						{
							OFFSET 8.670297 0.000000 0.000000
							CHANNELS 3 Xrotation Yrotation Zrotation
							JOINT WildBoar_l_FrontLeg_HipSHJnt
							{
								OFFSET 3.164961 0.548840 -12.164703
								CHANNELS 3 Xrotation Yrotation Zrotation
								JOINT WildBoar_l_FrontLeg_Knee1SHJnt
								{
									OFFSET 0.316314 -0.817221 -32.444130
									CHANNELS 3 Xrotation Yrotation Zrotation
									JOINT WildBoar_l_FrontLeg_Knee2SHJnt
									{
										OFFSET 0.171660 1.067869 -17.603088
										CHANNELS 3 Xrotation Yrotation Zrotation
										JOINT WildBoar_l_FrontLeg_AnkleSHJnt
										{
											OFFSET 0.012912 -0.586981 -1.322436
											CHANNELS 3 Xrotation Yrotation Zrotation
											JOINT WildBoar_l_FrontLeg_BallSHJnt
											{
												OFFSET -0.004807 -3.825893 -5.280976
												CHANNELS 3 Xrotation Yrotation Zrotation
												JOINT WildBoar_l_FrontLeg_ToeSHJnt
												{
													OFFSET -0.006160 -4.905069 -0.000002
													CHANNELS 3 Xrotation Yrotation Zrotation
													End Site
													{
														OFFSET 4.905067 -0.006161 -0.000003
													}
												}
											}
										}
									}
								}
							}
						}
						JOINT WildBoar_r_Clavicle_01_01SHJnt
						{
							OFFSET -8.670297 0.000000 0.000000
							CHANNELS 3 Xrotation Yrotation Zrotation
							JOINT WildBoar_r_FrontLeg_HipSHJnt
							{
								OFFSET -3.164964 0.548840 -12.164703
								CHANNELS 3 Xrotation Yrotation Zrotation
								JOINT WildBoar_r_FrontLeg_Knee1SHJnt
								{
									OFFSET -0.316322 -0.817221 -32.444130
									CHANNELS 3 Xrotation Yrotation Zrotation
									JOINT WildBoar_r_FrontLeg_Knee2SHJnt
									{
										OFFSET -0.171665 1.067869 -17.603088
										CHANNELS 3 Xrotation Yrotation Zrotation
										JOINT WildBoar_r_FrontLeg_AnkleSHJnt
										{
											OFFSET -0.012913 -0.586981 -1.322436
											CHANNELS 3 Xrotation Yrotation Zrotation
											JOINT WildBoar_r_FrontLeg_BallSHJnt
											{
												OFFSET 0.004806 -3.825893 -5.280976
												CHANNELS 3 Xrotation Yrotation Zrotation
												JOINT WildBoar_r_FrontLeg_ToeSHJnt
												{
													OFFSET 0.006160 -4.905069 -0.000002
													CHANNELS 3 Xrotation Yrotation Zrotation
													End Site
													{
														OFFSET 4.905068 0.006161 -0.000002
													}
												}
											}
										}
									}
								}
							}
						}
						JOINT WildBoar_Neck_01SHJnt
						{
							OFFSET -0.000000 -12.476246 -2.105774
							CHANNELS 3 Xrotation Yrotation Zrotation
							JOINT WildBoar_Neck_02SHJnt
							{
								OFFSET 0.000000 -10.017231 1.165779
								CHANNELS 3 Xrotation Yrotation Zrotation
								JOINT WildBoar_Neck_TopSHJnt
								{
									OFFSET 0.000000 -9.610825 0.768044
									CHANNELS 3 Xrotation Yrotation Zrotation
									JOINT WildBoar_Head_JawSHJnt
									{
										OFFSET -0.000001 -11.273338 -4.973049
										CHANNELS 3 Xrotation Yrotation Zrotation
										JOINT WildBoar_Head_JawEndSHJnt
										{
											OFFSET -0.000002 -22.190353 -15.124695
											CHANNELS 3 Xrotation Yrotation Zrotation
											End Site
											{
												OFFSET -0.000002 -22.110291 -15.241497
											}
										}
									}
									JOINT WildBoar_Head_TopSHJnt
									{
										OFFSET 0.000002 -15.944977 17.523094
										CHANNELS 3 Xrotation Yrotation Zrotation
										JOINT WildBoar_l_Ear_01_01SHJnt
										{
											OFFSET 10.362524 11.406597 -2.807991
											CHANNELS 3 Xrotation Yrotation Zrotation
											JOINT WildBoar_l_Ear_01_02SHJnt
											{
												OFFSET 6.918999 -0.514683 5.827293
												CHANNELS 3 Xrotation Yrotation Zrotation
												JOINT WildBoar_l_Ear_01_03SHJnt
												{
													OFFSET 5.957382 0.355659 6.469810
													CHANNELS 3 Xrotation Yrotation Zrotation
													End Site
													{
														OFFSET 5.020468 -6.741234 -2.612671
													}
												}
											}
										}
										JOINT WildBoar_r_Ear_01_01SHJnt
										{
											OFFSET -10.362526 11.406597 -2.807991
											CHANNELS 3 Xrotation Yrotation Zrotation
											JOINT WildBoar_r_Ear_01_02SHJnt
											{
												OFFSET -6.918997 -0.514683 5.827293
												CHANNELS 3 Xrotation Yrotation Zrotation
												JOINT WildBoar_r_Ear_01_03SHJnt
												{
													OFFSET -5.957380 0.355659 6.469810
													CHANNELS 3 Xrotation Yrotation Zrotation
													End Site
													{
														OFFSET -5.020468 -6.741234 -2.612671
													}
												}
											}
										}
										JOINT WildBoar_Nose_01_01SHJnt
										{
											OFFSET 0.146534 -15.145607 -20.472496
											CHANNELS 3 Xrotation Yrotation Zrotation
											JOINT WildBoar_Nose_01_02SHJnt
											{
												OFFSET -0.000001 -9.738365 -5.125526
												CHANNELS 3 Xrotation Yrotation Zrotation
												End Site
												{
													OFFSET 0.000001 -6.131317 9.138596
												}
											}
										}
									}
								}
							}
						}
					}
				}
			}
		}
	}
	JOINT WildBoar_l_HindLeg_HipSHJnt
	{
		OFFSET 11.907801 0.071259 -9.892372
		CHANNELS 3 Xrotation Yrotation Zrotation
		JOINT WildBoar_l_HindLeg_Knee1SHJnt
		{
			OFFSET -1.208079 8.601734 -32.196701
			CHANNELS 3 Xrotation Yrotation Zrotation
			JOINT WildBoar_l_HindLeg_Knee2SHJnt
			{
				OFFSET 0.929813 -5.149776 -18.902822
				CHANNELS 3 Xrotation Yrotation Zrotation
				JOINT WildBoar_l_HindLeg_AnkleSHJnt
				{
					OFFSET -0.016349 -0.419094 -2.601883
					CHANNELS 3 Xrotation Yrotation Zrotation
					JOINT WildBoar_l_HindLeg_BallSHJnt
					{
						OFFSET -0.062816 -2.064716 -5.221140
						CHANNELS 3 Xrotation Yrotation Zrotation
						JOINT WildBoar_l_HindLeg_ToeSHJnt
						{
							OFFSET 0.563698 -5.159508 -0.000093
							CHANNELS 3 Xrotation Yrotation Zrotation
							End Site
							{
								OFFSET 5.159507 0.563698 0.000025
							}
						}
					}
				}
			}
		}
	}
	JOINT WildBoar_r_HindLeg_HipSHJnt
	{
		OFFSET -11.907801 0.071259 -9.892372
		CHANNELS 3 Xrotation Yrotation Zrotation
		JOINT WildBoar_r_HindLeg_Knee1SHJnt
		{
			OFFSET 1.208084 8.601734 -32.196701
			CHANNELS 3 Xrotation Yrotation Zrotation
			JOINT WildBoar_r_HindLeg_Knee2SHJnt
			{
				OFFSET -0.929811 -5.149776 -18.902822
				CHANNELS 3 Xrotation Yrotation Zrotation
				JOINT WildBoar_r_HindLeg_AnkleSHJnt
				{
					OFFSET 0.016349 -0.419094 -2.601883
					CHANNELS 3 Xrotation Yrotation Zrotation
					JOINT WildBoar_r_HindLeg_BallSHJnt
					{
						OFFSET 0.062817 -2.064716 -5.221139
						CHANNELS 3 Xrotation Yrotation Zrotation
						JOINT WildBoar_r_HindLeg_ToeSHJnt
						{
							OFFSET -0.563698 -5.159508 -0.000092
							CHANNELS 3 Xrotation Yrotation Zrotation
							End Site
							{
								OFFSET 5.159507 -0.563698 -0.000023
							}
						}
					}
				}
			}
		}
	}
	JOINT WildBoar_Tail_01_01SHJnt
	{
		OFFSET 0.000000 20.717888 9.172180
		CHANNELS 3 Xrotation Yrotation Zrotation
		JOINT WildBoar_Tail_01_02SHJnt
		{
			OFFSET -0.000000 5.092255 -8.034218
			CHANNELS 3 Xrotation Yrotation Zrotation
			JOINT WildBoar_Tail_01_03SHJnt
			{
				OFFSET -0.000000 -0.708420 -11.714390
				CHANNELS 3 Xrotation Yrotation Zrotation
				End Site
				{
					OFFSET -0.000000 11.707321 -0.816906
				}
			}
		}
	}
}
MOTION
Frames: 4
Frame Time: 0.040000
0.000000 45.635910 67.551407 5.901598 0.000000 -0.000000 -10.530151 0.000049 0.000010 1.334093 0.000000 0.000000 1.947697 -0.000010 0.000000 1.142486 0.000000 0.000001 2.299546 0.000000 0.000001 -19.298134 -0.000002 0.000009 -0.651913 4.291269 -4.236582 -4.913946 0.002177 -0.047845 12.053314 0.606489 3.229043 10.931343 -3.602657 2.088287 6.707121 -0.334829 0.233626 0.000000 0.000000 0.000000 -12.138353 -0.167490 -0.102581 -48.491126 -6.002223 -9.741022 74.589354 -0.408756 -0.539669 45.536694 12.025298 -14.448193 -22.445270 -6.851974 1.752400 0.000001 -0.000098 -0.000000 -0.000000 -0.000000 -0.000000 2.463975 -0.018833 -0.377643 4.770827 -0.047927 -0.357929 2.995303 -0.003571 -0.019008 -11.672796 -0.000000 0.000002 -0.000002 -0.000000 0.000000 0.000007 -0.000001 -0.000007 -5.840820 -7.869074 6.412340 -6.230460 -7.810127 6.107077 -0.000004 -0.000003 -0.000001 -5.840823 7.869080 -6.412332 -6.230461 7.810126 -6.107074 0.000008 -0.000001 0.000007 0.000034 -0.000032 -0.000012 -0.000003 0.000001 0.000009 -27.217042 2.953294 -0.824148 -1.257683 -0.202013 -0.009023 -9.009089 -1.074447 0.726775 31.603347 -1.727049 0.590202 0.000031 -0.000280 -0.000000 0.000000 0.000000 -0.000000 2.816829 -12.586187 7.934918 -57.138470 7.545494 4.448385 71.702377 -2.262938 -5.208281 23.146903 0.984704 -0.220111 0.000014 0.000084 0.000000 -0.000001 0.000000 0.000000 18.351482 -0.000006 -0.000010 44.922369 0.000001 -0.000002 13.943526 0.000000 -0.000001 
0.000000 46.051117 66.517601 7.434187 0.000000 -0.000000 -11.366417 -0.000048 -0.000002 0.827750 0.000027 -0.000317 1.935657 -0.000010 0.000000 0.414368 0.000000 0.000001 1.899311 0.000000 -0.000006 -17.667153 -0.000004 0.000015 7.969757 4.414843 -3.992517 -4.913918 0.002175 -0.047845 13.525704 0.798784 2.614951 2.725876 -3.655017 1.618685 12.108379 -0.712276 0.458960 -0.000002 -0.000000 0.000000 -17.504359 -0.039153 -0.029235 -30.467435 -7.290532 -4.835227 44.782132 -0.161075 -0.393957 -11.577729 8.087537 1.291427 61.908111 -0.124586 -0.867932 0.000002 -0.000078 0.000000 0.000000 0.000000 0.000000 2.970909 -0.160483 -0.545061 5.833113 -0.205723 -0.502471 3.738320 -0.012766 -0.026148 -11.672792 -0.000000 0.000002 0.000003 0.000000 -0.000000 0.000005 -0.000001 -0.000007 -5.812350 -7.826271 6.380651 -6.199806 -7.767594 6.077116 0.000003 -0.000002 -0.000004 -5.785182 7.785495 -6.350438 -6.170582 7.727079 -6.048556 0.000009 0.000003 0.000010 0.000044 -0.000032 -0.000012 -0.000003 0.000001 0.000009 -23.324404 3.384134 -1.041882 -4.693166 -0.752218 -0.056229 -12.708937 -1.613588 0.569273 33.354539 -1.199612 0.350318 0.000031 -0.000280 -0.000000 -0.000000 -0.000000 -0.000000 -20.027520 -9.880121 2.917856 -27.168450 4.161726 1.155591 26.410376 -3.103644 -3.795709 29.313133 6.652988 -2.781741 0.000009 0.000084 0.000000 -0.000003 -0.000000 0.000000 27.692350 -0.000001 -0.000002 48.279670 0.000001 -0.000002 17.300820 0.000000 -0.000001 
0.000000 46.534443 64.697845 8.503975 0.000000 -0.000000 -12.150790 -0.000013 0.000034 0.018494 0.000020 -0.000215 1.309928 -0.000010 0.000000 -1.137872 -0.000000 0.000002 3.769679 0.000001 0.000001 -13.246512 -0.000002 0.000012 13.459715 4.435448 -3.969591 -4.913922 0.002181 -0.047845 12.384771 0.772072 2.177717 -2.550752 -3.754178 1.366141 12.818798 -0.880480 0.537715 0.000001 -0.000000 -0.000000 -18.742128 -0.000001 0.000008 1.747629 -7.426769 0.736989 6.940186 -0.003919 -0.067515 -6.651164 -0.337985 1.763137 18.575111 6.676178 -4.569995 0.000000 -0.000073 0.000000 -0.000000 -0.000000 -0.000000 3.488358 -0.265273 -0.660913 6.871006 -0.327784 -0.597029 4.435657 -0.019987 -0.030544 -11.672793 -0.000000 0.000002 0.000003 0.000000 0.000000 0.000005 -0.000001 -0.000007 -5.639289 -7.567296 6.188282 -6.013703 -7.510252 5.895212 0.000002 0.000003 -0.000005 -5.445995 7.280532 -5.973960 -5.806204 7.225180 -5.692363 0.000010 0.000003 0.000010 0.000041 -0.000032 -0.000012 -0.000005 0.000001 0.000009 -6.370730 5.179127 -1.833726 -21.022769 -3.278257 -0.723336 -6.353842 -0.809364 0.613851 25.234134 -1.376609 0.324515 0.000031 -0.000280 0.000000 -0.000000 0.000000 -0.000000 -25.472683 -9.475806 1.311508 -15.302723 2.417251 0.408020 -3.003523 -0.362969 -0.253675 34.926510 6.814540 -3.252681 0.000009 0.000084 0.000001 -0.000000 0.000000 0.000000 32.826138 -0.000006 -0.000008 55.701084 0.000001 -0.000003 24.722213 0.000001 -0.000001 
0.000000 47.028114 62.684364 9.168116 0.000000 -0.000000 -13.526904 -0.000017 0.000079 -0.429485 0.000003 -0.000033 0.905720 -0.000010 -0.000002 -2.180180 -0.000001 0.000006 5.767900 0.000001 0.000000 -7.435823 -0.000000 0.000003 15.305838 4.462538 -3.991904 -3.608906 0.001203 -0.035161 11.103439 0.640175 2.127449 -7.438439 -3.863375 1.191333 9.509969 -0.801608 0.478252 -0.000000 -0.000000 -0.000000 -15.446090 -0.000000 0.000007 8.929209 -7.548787 1.431591 5.173414 -0.002142 -0.050379 -15.520215 -1.101667 2.547571 17.614431 7.610625 -5.080231 0.000000 -0.000069 0.000000 0.000000 -0.000000 0.000000 3.992110 -0.332566 -0.728574 7.831180 -0.410600 -0.647454 5.046855 -0.024973 -0.032637 -11.672794 -0.000000 0.000002 0.000005 -0.000000 -0.000000 0.000005 -0.000001 -0.000007 -5.169892 -6.874151 5.667895 -5.509825 -6.821368 5.402533 0.000001 -0.000001 0.000001 -4.533964 5.908996 -4.976367 -4.822421 5.899860 -4.729975 0.000007 0.000003 0.000006 0.000034 -0.000032 -0.000012 -0.000002 0.000001 0.000009 9.877341 6.245122 -2.426471 -25.250899 -3.891308 -1.010611 -5.685027 -0.736184 0.251362 12.016325 -1.979681 0.387945 0.000031 -0.000280 -0.000000 0.000000 0.000000 0.000000 -18.589992 -9.889562 2.589620 -20.486456 3.198975 0.690148 -6.215434 0.789307 -0.128641 35.708038 5.697162 -2.670050 0.000009 0.000084 -0.000000 -0.000000 0.000000 -0.000000 29.773382 -0.000005 -0.000007 68.863586 0.000003 -0.000003 37.884727 0.000001 -0.000001 
